<svg width="3887" height="2104" xmlns="http://www.w3.org/2000/svg" xmlns:xlink="http://www.w3.org/1999/xlink" xml:space="preserve" overflow="hidden"><g transform="translate(-444 -123)"><g><rect x="447.5" y="167.5" width="3750" height="2053" stroke="#F2F2F2" stroke-width="4.58333" stroke-linecap="butt" stroke-linejoin="miter" stroke-miterlimit="8" stroke-opacity="1" fill="#F2F2F2" fill-opacity="1"/><path d="M880.462 816.182 3160.26 1815.87 3217.94 1684.34 3377.7 1999.05 3037.98 2094.73 3095.66 1963.2 815.862 963.503Z" stroke="#172C51" stroke-width="4.58333" stroke-linecap="butt" stroke-linejoin="miter" stroke-miterlimit="8" stroke-opacity="1" fill="#DAE3F3" fill-rule="evenodd" fill-opacity="1"/><path d="M1.14583-2.46134e-07 1.14619 1657.15-1.14548 1657.15-1.14583 2.46134e-07ZM13.7504 1652.57 0.000360892 1680.07-13.7496 1652.57Z" fill="#000000" fill-rule="nonzero" fill-opacity="1" transform="matrix(1 0 0 -1 1934 2131.07)"/><path d="M499 1253.85 4100.53 1253.85 4100.53 1256.15 499 1256.15ZM4095.93 1241.25 4123.43 1255 4095.93 1268.75Z" fill="#000000" fill-rule="nonzero" fill-opacity="1"/><path d="M936.5 970C936.5 924.437 979.928 887.5 1033.5 887.5 1087.07 887.5 1130.5 924.437 1130.5 970 1130.5 1015.56 1087.07 1052.5 1033.5 1052.5 979.928 1052.5 936.5 1015.56 936.5 970Z" stroke="#000000" stroke-width="4.58333" stroke-linecap="butt" stroke-linejoin="miter" stroke-miterlimit="8" stroke-opacity="1" fill="#000000" fill-rule="evenodd" fill-opacity="1"/><text fill="#000000" fill-opacity="1" font-family="UD Digi Kyokasho NP-R,UD Digi Kyokasho NP-R_MSFontService,sans-serif" font-style="normal" font-variant="normal" font-weight="400" font-stretch="normal" font-size="147" text-anchor="start" direction="ltr" writing-mode="lr-tb" unicode-bidi="normal" text-decoration="none" transform="matrix(1 0 0 1 1977.55 1031)">物価が高い</text><text fill="#000000" fill-opacity="1" font-family="UD Digi Kyokasho NP-R,UD Digi Kyokasho NP-R_MSFontService,sans-serif" font-style="normal" font-variant="normal" font-weight="400" font-stretch="normal" font-size="147" text-anchor="start" direction="ltr" writing-mode="lr-tb" unicode-bidi="normal" text-decoration="none" transform="matrix(1 0 0 1 2050.88 1207)">気がする</text><text fill="#000000" fill-opacity="1" font-family="UD Digi Kyokasho NP-R,UD Digi Kyokasho NP-R_MSFontService,sans-serif" font-style="normal" font-variant="normal" font-weight="400" font-stretch="normal" font-size="147" text-anchor="start" direction="ltr" writing-mode="lr-tb" unicode-bidi="normal" text-decoration="none" transform="matrix(1 0 0 1 3419.41 1912)">物価高対策</text><text fill="#000000" fill-opacity="1" font-family="UD Digi Kyokasho NP-R,UD Digi Kyokasho NP-R_MSFontService,sans-serif" font-style="normal" font-variant="normal" font-weight="400" font-stretch="normal" font-size="147" text-anchor="start" direction="ltr" writing-mode="lr-tb" unicode-bidi="normal" text-decoration="none" transform="matrix(1 0 0 1 2959.19 1512)">原油値上げ</text><text fill="#000000" fill-opacity="1" font-family="UD Digi Kyokasho NP-R,UD Digi Kyokasho NP-R_MSFontService,sans-serif" font-style="normal" font-variant="normal" font-weight="400" font-stretch="normal" font-size="147" text-anchor="start" direction="ltr" writing-mode="lr-tb" unicode-bidi="normal" text-decoration="none" transform="matrix(1 0 0 1 2438.95 586)">日銀利上げ</text><text fill="#000000" fill-opacity="1" font-family="UD Digi Kyokasho NP-R,UD Digi Kyokasho NP-R_MSFontService,sans-serif" font-style="normal" font-variant="normal" font-weight="400" font-stretch="normal" font-size="147" text-anchor="start" direction="ltr" writing-mode="lr-tb" unicode-bidi="normal" text-decoration="none" transform="matrix(1 0 0 1 622.255 625)">値下げ圧力が</text><text fill="#000000" fill-opacity="1" font-family="UD Digi Kyokasho NP-R,UD Digi Kyokasho NP-R_MSFontService,sans-serif" font-style="normal" font-variant="normal" font-weight="400" font-stretch="normal" font-size="147" text-anchor="start" direction="ltr" writing-mode="lr-tb" unicode-bidi="normal" text-decoration="none" transform="matrix(1 0 0 1 915.588 801)">強い</text><text fill="#000000" fill-opacity="1" font-family="UD Digi Kyokasho NP-R,UD Digi Kyokasho NP-R_MSFontService,sans-serif" font-style="normal" font-variant="normal" font-weight="400" font-stretch="normal" font-size="147" text-anchor="start" direction="ltr" writing-mode="lr-tb" unicode-bidi="normal" text-decoration="none" transform="matrix(1 0 0 1 791.015 1689)">選挙の実施</text><text fill="#000000" fill-opacity="1" font-family="UD Digi Kyokasho NP-R,UD Digi Kyokasho NP-R_MSFontService,sans-serif" font-style="normal" font-variant="normal" font-weight="700" font-stretch="normal" font-size="183" text-anchor="start" direction="ltr" writing-mode="lr-tb" unicode-bidi="normal" text-decoration="none" transform="matrix(1 0 0 1 1585.31 351)">埋め込み表現分布例</text><text fill="#FF0000" fill-opacity="1" font-family="UD Digi Kyokasho NP-R,UD Digi Kyokasho NP-R_MSFontService,sans-serif" font-style="normal" font-variant="normal" font-weight="700" font-stretch="normal" font-size="165" text-anchor="start" direction="ltr" writing-mode="lr-tb" unicode-bidi="normal" text-decoration="none" transform="matrix(1 0 0 1 2743.43 1088)">ファクターを抽出！</text><path d="M1.04275-1.3663 437.78 331.948 435.695 334.681-1.04275 1.3663ZM426.195 303.222 439.446 335.382 404.929 331.086C403.987 330.969 403.319 330.11 403.436 329.168 403.553 328.226 404.412 327.558 405.354 327.675L436.947 331.607 435.146 333.967 423.017 304.531C422.655 303.654 423.074 302.649 423.951 302.287 424.829 301.926 425.834 302.344 426.195 303.222Z" fill="#FF0000" fill-rule="nonzero" fill-opacity="1" transform="matrix(-1 0 0 1 2910.94 1132.5)"/><path d="M3269.5 1686C3269.5 1640.44 3312.93 1603.5 3366.5 1603.5 3420.07 1603.5 3463.5 1640.44 3463.5 1686 3463.5 1731.56 3420.07 1768.5 3366.5 1768.5 3312.93 1768.5 3269.5 1731.56 3269.5 1686Z" stroke="#000000" stroke-width="4.58333" stroke-linecap="butt" stroke-linejoin="miter" stroke-miterlimit="8" stroke-opacity="1" fill="#000000" fill-rule="evenodd" fill-opacity="1"/><path d="M2733.5 743.5C2733.5 698.213 2776.93 661.5 2830.5 661.5 2884.07 661.5 2927.5 698.213 2927.5 743.5 2927.5 788.787 2884.07 825.5 2830.5 825.5 2776.93 825.5 2733.5 788.787 2733.5 743.5Z" stroke="#000000" stroke-width="4.58333" stroke-linecap="butt" stroke-linejoin="miter" stroke-miterlimit="8" stroke-opacity="1" fill="#000000" fill-rule="evenodd" fill-opacity="1"/><path d="M1065.5 1870C1065.5 1824.44 1108.93 1787.5 1162.5 1787.5 1216.07 1787.5 1259.5 1824.44 1259.5 1870 1259.5 1915.56 1216.07 1952.5 1162.5 1952.5 1108.93 1952.5 1065.5 1915.56 1065.5 1870Z" stroke="#000000" stroke-width="4.58333" stroke-linecap="butt" stroke-linejoin="miter" stroke-miterlimit="8" stroke-opacity="1" fill="#000000" fill-rule="evenodd" fill-opacity="1"/><path d="M3661.5 2067C3661.5 2021.44 3704.93 1984.5 3758.5 1984.5 3812.07 1984.5 3855.5 2021.44 3855.5 2067 3855.5 2112.56 3812.07 2149.5 3758.5 2149.5 3704.93 2149.5 3661.5 2112.56 3661.5 2067Z" stroke="#000000" stroke-width="4.58333" stroke-linecap="butt" stroke-linejoin="miter" stroke-miterlimit="8" stroke-opacity="1" fill="#000000" fill-rule="evenodd" fill-opacity="1"/><path d="M2237.5 1399C2237.5 1353.44 2280.93 1316.5 2334.5 1316.5 2388.07 1316.5 2431.5 1353.44 2431.5 1399 2431.5 1444.56 2388.07 1481.5 2334.5 1481.5 2280.93 1481.5 2237.5 1444.56 2237.5 1399Z" stroke="#000000" stroke-width="4.58333" stroke-linecap="butt" stroke-linejoin="miter" stroke-miterlimit="8" stroke-opacity="1" fill="#000000" fill-rule="evenodd" fill-opacity="1"/></g></g></svg>